# AST/ASF file generated using VICON BodyLanguage
# -----------------------------------------------
:version 1.10
:name VICON
:units
  mass 1.0
  length 0.45
  angle deg
:documentation
   .ast/.asf automatically generated from VICON data using
   VICON BodyBuilder and BodyLanguage model FoxedUp or BRILLIANT.MOD
:root
   order TX TY TZ RX RY RZ
   axis XYZ
   position 0 0 0  
   orientation 0 0 0 
:bonedata
  begin
     id 1 
     name lhipjoint
     direction 0.650112 -0.723553 0.232005 
     length 2.45805 
     axis 0 0 0  XYZ
  end
  begin
     id 2 
     name lfemur
     direction 0.34202 -0.939693 0  
     length 7.00073  
     axis 0 0 20  XYZ
    dof rx ry rz
    limits (-160.0 20.0)
           (-70.0 70.0)
           (-60.0 70.0)
  end
  begin
     id 3 
     name ltibia
     direction 0.34202 -0.939693 0   
     length 7.8748   
     axis 0 0 20   XYZ
    dof rx
    limits (-10.0 170.0)
  end
  begin
     id 4 
     name lfoot
     direction 0.0542825 -0.14914 0.987325   
     length 1.75978   
     axis -90 7.62852e-016 20   XYZ
    dof rx rz
    limits (-45.0 90.0)
           (-70.0 20.0)
  end
  begin
     id 5 
     name ltoes
     direction 1.53509e-011 -4.21906e-011 1   
     length 0.893912   
     axis -90 7.62852e-016 20   XYZ
    dof rx
    limits (-90.0 20.0)
  end
  begin
     id 6 
     name rhipjoint
     direction -0.637897 -0.733345 0.235145   
     length 2.42522  
     axis 0 0 0  XYZ 
  end
  begin
     id 7 
     name rfemur
     direction -0.34202 -0.939693 0   
     length 7.02549   
     axis 0 0 -20   XYZ
    dof rx ry rz
    limits (-160.0 20.0)
           (-70.0 70.0)
           (-70.0 60.0)
  end
  begin
     id 8 
     name rtibia
     direction -0.34202 -0.939693 0   
     length 7.71512   
     axis 0 0 -20   XYZ
    dof rx
    limits (-10.0 170.0)
 end
 begin
     id 9 
     name rfoot
     direction -0.0822618 -0.226012 0.970645   
     length 1.90014  
     axis -90 -7.62852e-016 -20   XYZ
    dof rx rz
    limits (-45.0 90.0)
           (-20.0 70.0)
  end
  begin
     id 10 
     name rtoes
     direction -1.53542e-011 -4.21872e-011 1   
     length 0.957341   
     axis -90 -7.62852e-016 -20   XYZ
    dof rx
    limits (-90.0 20.0)
  end
  begin
     id 11 
     name lowerback
     direction -0.0022947 0.999774 -0.0211557   
     length 1.89909   
     axis 0 0 0   XYZ
    dof rx ry rz
    limits (-20.0 45.0)
           (-30.0 30.0)
           (-30.0 30.0)
  end
  begin
     id 12 
     name upperback
     direction 0.0107737 0.998635 0.0511027   
     length 1.8853   
     axis 0 0 0   XYZ
    dof rx ry rz
    limits (-20.0 45.0)
           (-30.0 30.0)
           (-30.0 30.0)
  end
  begin
     id 13 
     name thorax
     direction 0.011824 0.998136 0.0598754   
     length 1.88911   
     axis 0 0 0   XYZ
    dof rx ry rz
    limits (-20.0 45.0)
           (-30.0 30.0)
           (-30.0 30.0)
  end
  begin
     id 14 
     name lowerneck
     direction -0.0685355 0.990319 0.120714   
     length 1.91222   
     axis 0 0 0   XYZ
    dof rx ry rz
    limits (-20.0 45.0)
           (-30.0 30.0)
           (-30.0 30.0)
  end
  begin
     id 15 
     name upperneck
     direction 0.0886204 0.955665 -0.280805   
     length 1.92526   
     axis 0 0 0   XYZ
    dof rx ry rz
    limits (-20.0 45.0)
           (-30.0 30.0)
           (-30.0 30.0)
  end
  begin
     id 16
     name head
     direction 0.0233423 0.993502 -0.111393  
     length 1.96056  
     axis 0 0 0   XYZ
    dof rx ry rz
    limits (-20.0 45.0)
           (-30.0 30.0)
           (-30.0 30.0)
  end
  begin
     id 17 
     name lclavicle
     direction 0.941873 0.32922 0.0670041  
     length 3.31705  
     axis 0 0 0   XYZ
    dof ry rz
    limits (-20.0 10.0)
           (0.0 20.0)
  end
  begin
     id 18 
     name lhumerus
     direction 1 -4.4898e-011 3.38707e-028   
     length 5.29277   
     axis 180 -30 -90   XYZ
    dof rx ry rz
    limits (-60.0 90.0)
           (-90.0 90.0)
           (-90.0 90.0)
  end
  begin
     id 19
     name lradius
     direction 1 -4.48952e-011 1.63213e-028   
     length 2.85226   
     axis 180 -30 -90   XYZ
    dof rx
    limits (-10.0 170.0)
  end
  begin
     id 20
     name lwrist
     direction 1 -4.49001e-011 1.27856e-027   
     length 1.42613   
     axis -1.61767e-015 90 90   XYZ
    dof ry
    limits (-180.0 0.0)
 end
  begin
     id 21 
     name lhand
     direction 1 -4.48976e-011 2.55931e-027   
     length 0.602097   
     axis -1.63363e-015 90 90   XYZ
    dof rx rz
    limits (-90.0 90.0)
           (-45.0 45.0)
  end
  begin
     id 22 
     name lfingers
     direction 1 -4.48986e-011 5.11684e-027   
     length 0.485426   
     axis -3.26723e-015 90 90   XYZ
    dof rx
    limits (0.0 90.0)
  end
  begin
     id 23
     name lthumb
     direction 0.707107 -6.34915e-011 0.707107   
     length 0.696978   
     axis -90 45 -2.25915e-014   XYZ
    dof rx rz
    limits (-45.0 45.0)
           (-45.0 45.0)
  end
  begin
     id 24 
     name rclavicle
     direction -0.939974 0.327078 0.0973096   
     length 3.10337  
     axis 0 0 0   XYZ 
    dof ry rz
    limits (-10.0 20.0)
           (-20.0 0.0)
  end
  begin
     id 25 
     name rhumerus
     direction -1 -4.48975e-011 1.83745e-027  
     length 5.13304   
     axis 180 30 90   XYZ
    dof rx ry rz
    limits (-90.0 60.0)
           (-90.0 90.0)
           (-90.0 90.0)
  end
  begin
     id 26 
     name rradius
     direction -1 -4.48977e-011 7.1775e-029   
     length 2.74305   
     axis 180 30 90   XYZ
    dof rx
    limits (-10.0 170.0)
  end
  begin
     id 27 
     name rwrist
     direction -1 -4.48977e-011 1.27963e-027   
     length 1.37152   
     axis -1.61767e-015 -90 -90   XYZ
    dof ry
    limits (-180.0 0.0)
  end
  begin
     id 28
     name rhand
     direction -1 -4.4888e-011 2.56782e-027   
     length 0.767976   
     axis -1.63363e-015 -90 -90   XYZ
    dof rx rz
    limits (-90.0 90.0)
           (-45.0 45.0)
  end
  begin
     id 29
     name rfingers
     direction -1 -4.48947e-011 5.12384e-027   
     length 0.619162   
     axis -3.26723e-015 -90 -90   XYZ
    dof rx
    limits (0.0 90.0)
  end
  begin
     id 30
     name rthumb
     direction -0.707107 -6.34857e-011 0.707107   
     length 0.888997   
     axis -90 -45 2.25915e-014   XYZ
    dof rx rz
    limits (-45.0 45.0)
           (-45.0 45.0)
  end
:hierarchy
  begin
    root lhipjoint rhipjoint lowerback
    lhipjoint lfemur
    lfemur ltibia
    ltibia lfoot
    lfoot ltoes
    rhipjoint rfemur
    rfemur rtibia
    rtibia rfoot
    rfoot rtoes
    lowerback upperback
    upperback thorax
    thorax lowerneck lclavicle rclavicle
    lowerneck upperneck
    upperneck head
    lclavicle lhumerus
    lhumerus lradius
    lradius lwrist
    lwrist lhand lthumb
    lhand lfingers
    rclavicle rhumerus
    rhumerus rradius
    rradius rwrist
    rwrist rhand rthumb
    rhand rfingers
  end

#!OML:ASF F:\VICON\USERDATA\INSTALL\rory3\rory3.ASF
:FULLY-SPECIFIED
:DEGREES
1616
root 0.296942 17.4533 -0.0607935 3.99557 -0.0054565 -1.45379
lowerback -0.303771 0.34347 -0.875997
upperback -3.64944 0.469047 0.836583
thorax -3.59464 0.276084 1.33813
lowerneck -17.2424 -10.5782 -13.9412
upperneck 29.8339 -15.6336 12.7579
head 15.6607 -6.71467 4.61598
rclavicle -1.39623e-014 9.69075e-016
rhumerus -39.1766 1.62892 -89.1241
rradius 24.9422
rwrist 5.95266
rhand 0.375922 13.4208
rfingers 7.12502
rthumb 25.9504 -14.8277
lclavicle -1.39623e-014 9.69075e-016
lhumerus -30.9407 0.54904 92.1093
lradius 15.6172
lwrist -25.6246
lhand -2.29102 24.6264
lfingers 7.12502
lthumb 23.3942 53.2245
rfemur 0 0 0
rtibia 0
rfoot 0 0
rtoes 0
lfemur -4.15111 -18.4193 -17.9984
ltibia 15.3908
lfoot -15.0278 16.1619
ltoes -15.1856
1617
root 0.297623 17.4541 -0.05991 4.01302 -0.00367085 -1.42332
lowerback -0.320139 0.345882 -0.891532
upperback -3.64055 0.472222 0.841764
thorax -3.57648 0.278089 1.3522
lowerneck -17.2818 -10.578 -13.9779
upperneck 29.8341 -15.6114 12.7478
head 15.6684 -6.70864 4.62126
rclavicle -7.58798e-015 -7.60351e-015
rhumerus -39.1179 1.47035 -89.0043
rradius 24.9142
rwrist 6.1823
rhand 0.417584 13.3891
rfingers 7.12502
rthumb 25.9903 -14.8536
lclavicle -7.58798e-015 -7.60351e-015
lhumerus -30.9495 0.494515 92.1553
lradius 15.709
lwrist -25.473
lhand -2.34044 24.3716
lfingers 7.12502
lthumb 23.3468 52.9758
rfemur 0 0 0
rtibia 0
rfoot 0 0
rtoes 0
lfemur -4.15687 -18.3568 -18.0299
ltibia 15.3634
lfoot -14.9459 16.1701
ltoes -15.4031
1618
root 0.297012 17.4547 -0.0596925 4.02864 -0.0199465 -1.39026
lowerback -0.333605 0.344904 -0.920449
upperback -3.62865 0.470377 0.839082
thorax -3.55673 0.277829 1.3658
lowerneck -17.3516 -10.5595 -13.9586
upperneck 29.861 -15.5742 12.7224
head 15.6849 -6.69021 4.61418
rclavicle -7.82132e-015 -1.27346e-015
rhumerus -39.0543 1.40299 -88.9541
rradius 24.8556
rwrist 6.27626
rhand 0.431322 13.4321
rfingers 7.12502
rthumb 26.0034 -14.8087
lclavicle -7.82132e-015 -1.27346e-015
lhumerus -30.9175 0.51995 92.1362
lradius 15.7208
lwrist -25.4628
lhand -2.20774 24.7403
lfingers 7.12502
lthumb 23.4741 53.3282
rfemur 0 0 0
rtibia 0
rfoot 0 0
rtoes 0
lfemur -4.13915 -18.3569 -18.0623
ltibia 15.3011
lfoot -14.8813 16.2023
ltoes -15.7065
1619
root 0.296147 17.4545 -0.0593508 4.01075 0.00716612 -1.34988
lowerback -0.288244 0.33812 -0.960807
upperback -3.63954 0.460168 0.83199
thorax -3.59368 0.274158 1.38115
lowerneck -17.3653 -10.5344 -13.9477
upperneck 29.9058 -15.5408 12.7119
head 15.7007 -6.67508 4.6171
rclavicle -1.80009e-014 -7.90169e-015
rhumerus -39.035 1.25195 -88.8663
rradius 24.7757
rwrist 6.42727
rhand 0.488373 13.4503
rfingers 7.12502
rthumb 26.0581 -14.7824
lclavicle -1.80009e-014 -7.90169e-015
lhumerus -30.9681 0.392732 92.1714
lradius 15.7778
lwrist -25.368
lhand -1.93537 25.7102
lfingers 7.12502
lthumb 23.7354 54.2644
rfemur 0 0 0
rtibia 0
rfoot 0 0
rtoes 0
lfemur -4.09618 -18.3706 -18.1047
ltibia 15.2432
lfoot -14.8764 16.241
ltoes -15.9821
1620
root 0.296844 17.4543 -0.0574451 3.99957 0.0575072 -1.31752
lowerback -0.241553 0.322307 -0.974773
upperback -3.66594 0.438357 0.825084
thorax -3.64686 0.264085 1.38222
lowerneck -17.4031 -10.5289 -13.9521
upperneck 29.9932 -15.5316 12.6886
head 15.7471 -6.67182 4.61213
rclavicle -1.40741e-014 -9.87711e-015
rhumerus -39.0767 1.19593 -88.8216
rradius 24.7399
rwrist 6.47004
rhand 0.445325 13.5017
rfingers 7.12502
rthumb 26.0168 -14.7371
lclavicle -1.40741e-014 -9.87711e-015
lhumerus -31.0358 0.292976 92.2191
lradius 15.8261
lwrist -25.252
lhand -1.80526 26.336
lfingers 7.12502
lthumb 23.8602 54.874
rfemur 0 0 0
rtibia 0
rfoot 0 0
rtoes 0
lfemur -4.04394 -18.3954 -18.1443
ltibia 15.1696
lfoot -14.9222 16.2539
ltoes -15.9256
1621
root 0.297767 17.4541 -0.055642 4.00732 0.0966871 -1.25329
lowerback -0.260454 0.32902 -0.991736
upperback -3.67242 0.445997 0.786572
thorax -3.64291 0.267774 1.35192
lowerneck -17.3502 -10.5497 -14.0077
upperneck 29.9649 -15.5728 12.7552
head 15.7437 -6.69011 4.64172
rclavicle -1.33892e-014 -1.08897e-014
rhumerus -39.0854 1.06229 -88.753
rradius 24.7214
rwrist 6.5612
rhand 0.445889 13.572
rfingers 7.12502
rthumb 26.0174 -14.6667
lclavicle -1.33892e-014 -1.08897e-014
lhumerus -31.0474 0.1475 92.2548
lradius 15.8251
lwrist -25.1784
lhand -1.8872 26.4422
lfingers 7.12502
lthumb 23.7816 54.9904
rfemur 0 0 0
rtibia 0
rfoot 0 0
rtoes 0
lfemur -4.01732 -18.3979 -18.2188
ltibia 15.1032
lfoot -14.8313 16.213
ltoes -16.1233
1622
root 0.297792 17.4538 -0.0552958 4.00697 0.118824 -1.22122
lowerback -0.242622 0.338529 -1.00837
upperback -3.67763 0.457936 0.77463
thorax -3.65883 0.274185 1.34849
lowerneck -17.3487 -10.5627 -14.0709
upperneck 29.9763 -15.5964 12.8149
head 15.7679 -6.69979 4.67355
rclavicle -5.71778e-015 -1.61388e-014
rhumerus -39.0697 0.880245 -88.6265
rradius 24.6865
rwrist 6.67363
rhand 0.459231 13.6118
rfingers 7.12502
rthumb 26.0302 -14.625
lclavicle -5.71778e-015 -1.61388e-014
lhumerus -31.0135 0.246604 92.2055
lradius 15.7831
lwrist -25.3309
lhand -1.89417 26.5533
lfingers 7.12502
lthumb 23.7749 55.1024
rfemur 0 0 0
rtibia 0
rfoot 0 0
rtoes 0
lfemur -3.98512 -18.4007 -18.2543
ltibia 15.047
lfoot -14.795 16.1519
ltoes -15.9011
1623
root 0.298649 17.4549 -0.0551662 4.02577 0.131881 -1.18481
lowerback -0.222398 0.327548 -1.03041
upperback -3.70588 0.442776 0.775418
thorax -3.69934 0.267763 1.36196
lowerneck -17.3122 -10.5414 -14.0278
upperneck 29.9705 -15.5526 12.7384
head 15.7338 -6.68768 4.64404
rclavicle -2.11744e-014 -2.04003e-014
rhumerus -39.0885 0.775487 -88.5171
rradius 24.6862
rwrist 6.79269
rhand 0.616907 13.6298
rfingers 7.12502
rthumb 26.1811 -14.5847
lclavicle -2.11744e-014 -2.04003e-014
lhumerus -31.0512 0.307713 92.1839
lradius 15.8033
lwrist -25.369
lhand -1.82273 26.5955
lfingers 7.12502
lthumb 23.8434 55.1357
rfemur 0 0 0
rtibia 0
rfoot 0 0
rtoes 0
lfemur -3.98485 -18.4081 -18.2861
ltibia 14.9952
lfoot -14.6726 16.1711
ltoes -16.0512
1624
root 0.299631 17.4549 -0.0526791 4.00955 0.138884 -1.15238
lowerback -0.189043 0.328054 -1.03878
upperback -3.72386 0.442733 0.764598
thorax -3.73686 0.268167 1.35531
lowerneck -17.2875 -10.5211 -13.9435
upperneck 29.9932 -15.5163 12.6331
head 15.7095 -6.6766 4.59422
rclavicle 6.75091e-015 -7.68116e-015
rhumerus -39.1098 0.648256 -88.4226
rradius 24.7051
rwrist 6.86632
rhand 0.746458 13.5857
rfingers 7.12502
rthumb 26.3052 -14.6103
lclavicle 6.75091e-015 -7.68116e-015
lhumerus -31.0872 0.125311 92.2461
lradius 15.8003
lwrist -25.1761
lhand -1.78334 26.6108
lfingers 7.12502
lthumb 23.8812 55.1461
rfemur 0 0 0
rtibia 0
rfoot 0 0
rtoes 0
lfemur -3.95231 -18.4103 -18.3272
ltibia 14.9795
lfoot -14.5758 16.1482
ltoes -16.2371
1625
root 0.298675 17.4541 -0.0500539 3.99331 0.160657 -1.11916
lowerback -0.196464 0.31974 -1.08083
upperback -3.7062 0.431086 0.771736
thorax -3.71442 0.263581 1.38667
lowerneck -17.306 -10.5256 -13.9217
upperneck 30.026 -15.5125 12.5783
head 15.7194 -6.67779 4.56812
rclavicle 5.46231e-015 1.19286e-014
rhumerus -39.0541 0.510349 -88.2877
rradius 24.658
rwrist 7.02356
rhand 0.880514 13.6352
rfingers 7.12502
rthumb 26.4335 -14.5417
lclavicle 5.46231e-015 1.19286e-014
lhumerus -31.0485 0.15975 92.2498
lradius 15.7654
lwrist -25.1968
lhand -1.88581 26.7111
lfingers 7.12502
lthumb 23.7829 55.2592
rfemur 0 0 0
rtibia 0
rfoot 0 0
rtoes 0
lfemur -3.92606 -18.4275 -18.3718
ltibia 14.9775
lfoot -14.634 16.1906
ltoes -16.2665
1626
root 0.297995 17.4535 -0.0474851 3.98449 0.167677 -1.18992
lowerback -0.234455 0.311278 -1.02175
upperback -3.68603 0.422118 0.803139
thorax -3.67143 0.257376 1.38638
lowerneck -17.2971 -10.5185 -13.9008
upperneck 30.023 -15.5045 12.5659
head 15.7106 -6.67399 4.56136
rclavicle -3.58938e-015 -5.60945e-015
rhumerus -39.0115 0.494375 -88.2485
rradius 24.6669
rwrist 7.00113
rhand 1.02801 13.563
rfingers 7.12502
rthumb 26.5747 -14.5925
lclavicle -3.58938e-015 -5.60945e-015
lhumerus -31.0029 0.371963 92.1512
lradius 15.7488
lwrist -25.5407
lhand -1.82032 26.8455
lfingers 7.12502
lthumb 23.8457 55.3854
rfemur 0 0 0
rtibia 0
rfoot 0 0
rtoes 0
lfemur -3.90335 -18.422 -18.303
ltibia 14.9853
lfoot -14.7303 16.2526
ltoes -16.4983
1627
root 0.298251 17.4529 -0.0458593 3.99157 0.162472 -1.19176
lowerback -0.283194 0.325751 -1.00265
upperback -3.67167 0.441964 0.797844
thorax -3.62936 0.266229 1.36989
lowerneck -17.2488 -10.5298 -13.9113
upperneck 29.999 -15.5303 12.5913
head 15.6972 -6.68542 4.569
rclavicle 8.40176e-016 2.98177e-016
rhumerus -38.9887 0.467593 -88.2346
rradius 24.6699
rwrist 6.95699
rhand 1.05923 13.5807
rfingers 7.12502
rthumb 26.6045 -14.5704
lclavicle 8.40176e-016 2.98177e-016
lhumerus -30.9811 0.395035 92.1161
lradius 15.7757
lwrist -25.6499
lhand -1.68619 26.8897
lfingers 7.12502
lthumb 23.9743 55.4127
rfemur 0 0 0
rtibia 0
rfoot 0 0
rtoes 0
lfemur -3.91268 -18.409 -18.3033
ltibia 15.0004
lfoot -14.7373 16.1532
ltoes -16.251
